<svg width="20" height="20" viewBox="0 0 20 20" fill="none" xmlns="http://www.w3.org/2000/svg">
<g opacity="0.75">
<path fill-rule="evenodd" clip-rule="evenodd" d="M4.16667 4.33334C3.79848 4.33334 3.5 4.63182 3.5 5.00001V16.6667C3.5 17.0349 3.79848 17.3333 4.16667 17.3333H15.8333C16.2015 17.3333 16.5 17.0349 16.5 16.6667V5.00001C16.5 4.63182 16.2015 4.33334 15.8333 4.33334H4.16667ZM1.5 5.00001C1.5 3.52725 2.69391 2.33334 4.16667 2.33334H15.8333C17.3061 2.33334 18.5 3.52725 18.5 5.00001V16.6667C18.5 18.1394 17.3061 19.3333 15.8333 19.3333H4.16667C2.69391 19.3333 1.5 18.1394 1.5 16.6667V5.00001Z" fill="#33485C"/>
<path fill-rule="evenodd" clip-rule="evenodd" d="M13.3333 0.666656C13.8856 0.666656 14.3333 1.11437 14.3333 1.66666V4.99999C14.3333 5.55227 13.8856 5.99999 13.3333 5.99999C12.7811 5.99999 12.3333 5.55227 12.3333 4.99999V1.66666C12.3333 1.11437 12.7811 0.666656 13.3333 0.666656Z" fill="#33485C"/>
<path fill-rule="evenodd" clip-rule="evenodd" d="M6.66667 0.666656C7.21896 0.666656 7.66667 1.11437 7.66667 1.66666V4.99999C7.66667 5.55227 7.21896 5.99999 6.66667 5.99999C6.11439 5.99999 5.66667 5.55227 5.66667 4.99999V1.66666C5.66667 1.11437 6.11439 0.666656 6.66667 0.666656Z" fill="#33485C"/>
<path fill-rule="evenodd" clip-rule="evenodd" d="M1.5 8.33334C1.5 7.78106 1.94772 7.33334 2.5 7.33334H17.5C18.0523 7.33334 18.5 7.78106 18.5 8.33334C18.5 8.88563 18.0523 9.33334 17.5 9.33334H2.5C1.94772 9.33334 1.5 8.88563 1.5 8.33334Z" fill="#33485C"/>
</g>
</svg>
