<svg width="400" height="100" viewBox="0 0 400 100" fill="none" xmlns="http://www.w3.org/2000/svg">
<path fill-rule="evenodd" clip-rule="evenodd" d="M14.3427 83.1208C13.2528 82.4965 12.2972 81.6623 11.5309 80.6663C10.7647 79.6704 10.2029 78.5324 9.87817 77.318C9.55341 76.1036 9.47203 74.8369 9.63872 73.5909C9.80541 72.3448 10.2169 71.1442 10.8494 70.0582L39.5117 20.3357C40.7731 18.1342 42.8563 16.5244 45.3032 15.8606C47.7501 15.1968 50.3601 15.5333 52.5592 16.7962C54.7582 18.059 56.3661 20.1447 57.0291 22.5945C57.6921 25.0442 57.356 27.6573 56.0946 29.8589H56.0525L27.3902 79.5813C26.7701 80.6759 25.9395 81.6367 24.9463 82.4081C23.9531 83.1795 22.817 83.7461 21.6038 84.0752C20.3905 84.4044 19.1241 84.4895 17.8778 84.3257C16.6315 84.1618 15.43 83.7523 14.3427 83.1208ZM2.55793 65.2545C0.821671 68.2709 -0.0614528 71.7037 0.00332376 75.1845C0.0681003 78.6654 1.07833 82.0628 2.92562 85.0124C4.77291 87.962 7.38752 90.3523 10.4889 91.9269C13.5903 93.5015 17.0614 94.201 20.5298 93.9502H76.5076C81.5792 93.939 86.4394 91.9141 90.0217 88.3198C93.604 84.7254 95.6158 79.8552 95.6158 74.7776C95.6269 71.4359 94.7557 68.1506 93.0905 65.2545H93.1326L64.7228 16.2484C63.1307 13.2177 60.757 10.6691 57.8482 8.86765C54.9395 7.06616 51.6019 6.07749 48.1824 6.00437C44.7629 5.93126 41.3862 6.77637 38.4033 8.45188C35.4203 10.1274 32.9401 12.5721 31.2203 15.5321L2.55793 65.2545ZM64.3861 34.5783V34.6625L52.3066 55.6471H76.5917L64.3861 34.5783ZM46.7509 65.2123L35.6816 84.3428H76.5076C79.0415 84.3428 81.4716 83.335 83.2633 81.5412C85.0551 79.7474 86.0617 77.3144 86.0617 74.7776C86.0617 72.2407 85.0551 69.8077 83.2633 68.0139C81.4716 66.2201 79.0415 65.2123 76.5076 65.2123H46.7509Z" fill="url(#paint0_linear)"/>
<path d="M138.377 82.6134H133.832C133.607 82.6384 133.379 82.6178 133.162 82.5526C132.945 82.4875 132.743 82.3791 132.569 82.2341C132.249 81.9974 132.002 81.6765 131.854 81.3071L129.455 74.8179H116.365L113.966 81.3071C113.845 81.6683 113.608 81.9794 113.293 82.192C113.127 82.3392 112.934 82.4522 112.724 82.5245C112.515 82.5968 112.293 82.627 112.072 82.6134H107.442L119.9 50.8837H125.919L138.377 82.6134ZM127.981 70.6463L124.109 60.0697C123.899 59.6062 123.731 59.0584 123.52 58.4264C123.31 57.7943 123.099 57.078 122.889 56.3195C122.728 57.0314 122.532 57.7346 122.299 58.4264C122.136 58.9993 121.94 59.5621 121.71 60.1119L117.88 70.6463H127.981Z" fill="#4C6C7C"/>
<path d="M161.526 75.1549C161.685 75.1557 161.842 75.1898 161.987 75.2551C162.132 75.3204 162.262 75.4155 162.368 75.5342L164.683 78.0203C163.431 79.6066 161.814 80.8647 159.969 81.6863C155.764 83.3971 151.064 83.4273 146.837 81.7705C145.012 81.0095 143.375 79.8591 142.039 78.3995C140.684 76.931 139.651 75.194 139.009 73.3009C137.537 69.0544 137.552 64.433 139.051 60.1961C139.77 58.2919 140.873 56.5563 142.292 55.0974C143.674 53.635 145.353 52.4856 147.216 51.7264C149.235 50.9142 151.396 50.5131 153.571 50.5466C155.676 50.4991 157.768 50.8864 159.716 51.6843C161.409 52.4048 162.962 53.4175 164.304 54.676L162.326 57.415L161.863 57.8785C161.643 58.0367 161.375 58.1114 161.105 58.0892C160.866 58.0782 160.634 58.0056 160.432 57.8785C160.161 57.7553 159.907 57.5997 159.674 57.415L158.706 56.8251C158.302 56.5942 157.88 56.3969 157.443 56.2351C156.902 56.0169 156.337 55.8614 155.76 55.7716C155.041 55.618 154.306 55.5473 153.571 55.5609C152.23 55.5553 150.9 55.813 149.657 56.3194C148.501 56.8228 147.467 57.5703 146.627 58.5106C145.735 59.5446 145.062 60.7486 144.649 62.0501C144.159 63.5746 143.917 65.1681 143.933 66.7695C143.935 68.3867 144.19 69.9935 144.691 71.5311C145.135 72.8245 145.836 74.0143 146.753 75.0285C147.59 75.9728 148.625 76.721 149.783 77.2197C150.983 77.7214 152.271 77.9793 153.571 77.9781L155.76 77.8517C156.362 77.7716 156.954 77.6304 157.528 77.4304C158.076 77.2607 158.599 77.0199 159.085 76.714C159.611 76.3824 160.104 76.0014 160.558 75.5763C160.696 75.4539 160.852 75.3543 161.021 75.2813C161.177 75.2006 161.35 75.1574 161.526 75.1549Z" fill="#4C6C7C"/>
<path d="M188.884 75.1549C189.043 75.1557 189.2 75.1898 189.345 75.2551C189.49 75.3204 189.619 75.4155 189.725 75.5342L192.04 78.0203C190.789 79.6066 189.171 80.8647 187.326 81.6863C183.121 83.3971 178.421 83.4273 174.195 81.7705C172.369 81.0095 170.732 79.8591 169.397 78.3995C168.042 76.9226 166.998 75.1889 166.324 73.3009C165.621 71.1956 165.265 68.9895 165.272 66.7695C165.269 64.5292 165.654 62.3052 166.408 60.1961C167.128 58.3016 168.215 56.5687 169.607 55.0974C171.012 53.6427 172.703 52.4949 174.573 51.7264C176.593 50.9142 178.753 50.5131 180.929 50.5466C183.033 50.4991 185.125 50.8864 187.074 51.6843C188.766 52.4048 190.319 53.4175 191.661 54.676L189.683 57.415L189.22 57.8785C188.998 58.0305 188.732 58.1045 188.463 58.0892C188.223 58.0844 187.989 58.0114 187.789 57.8785C187.519 57.7553 187.265 57.5997 187.032 57.415L186.064 56.8251C185.66 56.5942 185.237 56.3969 184.801 56.2351C184.257 56.0223 183.693 55.867 183.117 55.7716C182.398 55.618 181.664 55.5473 180.929 55.5609C179.587 55.5553 178.257 55.813 177.015 56.3194C175.859 56.8228 174.825 57.5703 173.984 58.5106C173.101 59.5504 172.429 60.7527 172.006 62.0501C171.516 63.5746 171.274 65.1681 171.291 66.7695C171.292 68.3867 171.548 69.9935 172.048 71.5311C172.492 72.8245 173.194 74.0143 174.111 75.0285C174.948 75.9728 175.982 76.721 177.141 77.2197C178.341 77.7214 179.628 77.9793 180.929 77.9781L183.117 77.8517C183.719 77.7716 184.312 77.6304 184.885 77.4304C185.433 77.2607 185.957 77.0199 186.442 76.714C186.968 76.3824 187.462 76.0014 187.916 75.5763C188.053 75.4539 188.209 75.3543 188.379 75.2813C188.535 75.2006 188.708 75.1574 188.884 75.1549Z" fill="#4C6C7C"/>
<path d="M224.701 66.7696C224.71 68.973 224.31 71.159 223.523 73.2166C222.807 75.139 221.7 76.8918 220.273 78.3641C218.846 79.8365 217.129 80.9964 215.231 81.7706C211 83.3725 206.33 83.3725 202.099 81.7706C200.183 80.9995 198.449 79.8371 197.007 78.3574C195.58 76.8812 194.463 75.133 193.724 73.2166C192.209 69.0378 192.209 64.4591 193.724 60.2804C194.473 58.369 195.588 56.6227 197.007 55.1396C198.462 53.6861 200.194 52.5398 202.099 51.7686C204.182 50.9185 206.416 50.5027 208.665 50.5466C210.197 50.5415 211.724 50.7255 213.211 51.0944C214.565 51.4594 215.866 51.9976 217.083 52.6956C218.263 53.3669 219.34 54.2041 220.282 55.1817C221.223 56.1504 222.03 57.2418 222.681 58.4263C223.358 59.659 223.868 60.977 224.196 62.3451C224.535 63.7954 224.704 65.2801 224.701 66.7696ZM218.64 66.7696C218.671 65.1704 218.443 63.5768 217.967 62.0501C217.545 60.7557 216.857 59.5642 215.947 58.5527C215.088 57.5851 214.024 56.822 212.832 56.3194C210.132 55.3081 207.157 55.3081 204.456 56.3194C203.258 56.831 202.182 57.5923 201.3 58.5527C200.417 59.5769 199.745 60.7654 199.322 62.0501C198.354 65.1074 198.354 68.3896 199.322 71.4468C199.719 72.7429 200.394 73.9365 201.3 74.9443C202.182 75.9046 203.258 76.666 204.456 77.1775C207.157 78.1889 210.132 78.1889 212.832 77.1775C214.024 76.6749 215.088 75.9119 215.947 74.9443C216.865 73.9389 217.555 72.7455 217.967 71.4468C218.44 69.9339 218.668 68.3547 218.64 66.7696Z" fill="#4C6C7C"/>
<path d="M241.663 77.8518C242.714 77.8822 243.759 77.6958 244.735 77.304C245.583 76.9336 246.343 76.3879 246.966 75.7028C247.602 74.9609 248.088 74.1022 248.397 73.1745C248.735 72.112 248.906 71.003 248.902 69.8878V50.8837H254.794V69.8878C254.805 71.685 254.491 73.4695 253.868 75.155C253.305 76.7124 252.412 78.1291 251.249 79.3076C250.087 80.486 248.683 81.3982 247.134 81.9813C243.603 83.2878 239.722 83.2878 236.191 81.9813C234.636 81.389 233.227 80.4693 232.058 79.2843C230.888 78.0993 229.987 76.6767 229.415 75.1129C228.802 73.4404 228.502 71.6691 228.531 69.8878V50.8837H234.423V69.8878C234.426 71.0025 234.597 72.1105 234.929 73.1745C235.212 74.1009 235.701 74.951 236.36 75.6607C236.976 76.3811 237.755 76.9444 238.632 77.304C239.593 77.6959 240.625 77.8825 241.663 77.8518Z" fill="#4C6C7C"/>
<path d="M287.203 50.8837V82.6134H284.172C283.768 82.6458 283.362 82.5733 282.994 82.4027C282.652 82.1936 282.352 81.922 282.11 81.6021L265.569 60.449C265.653 61.4181 265.695 62.303 265.695 63.1458V82.6134H260.476V50.8837H264.222L264.727 51.0101L265.106 51.3051L265.569 51.8108L282.152 73.0481C282.11 72.5425 282.11 72.0368 282.068 71.5312C282.026 71.0255 282.026 70.562 282.026 70.1406V50.8837H287.203Z" fill="#4C6C7C"/>
<path d="M315.444 55.7296H305.89V82.6134H299.997V55.7296H290.443V50.8837H315.444V55.7296Z" fill="#4C6C7C"/>
<path d="M342.717 82.6134H338.13C337.911 82.6351 337.691 82.6127 337.481 82.5476C337.271 82.4824 337.077 82.3758 336.909 82.2341C336.589 81.9869 336.33 81.6699 336.152 81.3071L333.795 74.8179H320.663L318.306 81.3071C318.171 81.6604 317.937 81.9675 317.633 82.192C317.46 82.3424 317.26 82.4571 317.043 82.5295C316.827 82.6018 316.598 82.6303 316.37 82.6134H311.782L324.24 50.8837H330.259L342.717 82.6134ZM332.279 70.6463L328.449 60.0697C328.208 59.5393 328.011 58.9896 327.86 58.4264C327.65 57.7943 327.439 57.078 327.229 56.3195C327.018 57.078 326.85 57.7943 326.639 58.4264C326.429 59.0584 326.219 59.6484 326.05 60.1119L322.22 70.6463H332.279Z" fill="#4C6C7C"/>
<path d="M371.758 50.8837V82.6134H368.728C368.324 82.6498 367.917 82.5771 367.55 82.4027C367.186 82.2069 366.87 81.9336 366.624 81.6021L350.083 60.449C350.167 61.4181 350.209 62.303 350.209 63.1458V82.6134H345.032V50.8837H348.778L349.241 51.0101L349.662 51.3051L350.083 51.8108L366.708 73.0481L366.582 71.5312C366.54 71.0255 366.54 70.562 366.54 70.1406V50.8837H371.758Z" fill="#4C6C7C"/>
<path d="M399.958 55.7296H390.404V82.6134H384.511V55.7296H374.957V50.8837H400L399.958 55.7296Z" fill="#4C6C7C"/>
<path d="M121.247 22.9464L117.67 25.3061L115.944 22.7779L122.299 18.522H124.404V43.8467H121.247V22.9464Z" fill="#4C6C7C"/>
<path d="M142.797 32.4275V35.2086H131.475V32.4275H142.797Z" fill="#4C6C7C"/>
<path d="M153.361 42.8776C152.287 42.2573 151.388 41.3725 150.751 40.3072C150.117 39.2223 149.797 37.9823 149.825 36.7255C149.82 35.4484 150.202 34.1996 150.92 33.1438C151.61 32.0621 152.606 31.2112 153.782 30.6998C152.99 30.1201 152.353 29.3528 151.93 28.4666C151.469 27.5943 151.21 26.6294 151.172 25.6433C151.181 24.3991 151.514 23.1787 152.14 22.1038C152.8 21.0565 153.693 20.1766 154.75 19.5334C155.823 18.9066 157.042 18.5725 158.285 18.5642H159.758C161.001 18.5689 162.222 18.8978 163.299 19.5185C164.377 20.1392 165.274 21.0302 165.903 22.1038C166.535 23.1763 166.869 24.3982 166.871 25.6433C166.869 26.6559 166.623 27.653 166.156 28.5508C165.726 29.4227 165.072 30.1645 164.262 30.6998C165.436 31.2133 166.432 32.0638 167.124 33.1438C167.867 34.1898 168.264 35.4422 168.26 36.7255C168.253 37.9244 167.933 39.1006 167.334 40.1387C166.769 41.2218 165.945 42.1482 164.935 42.8355C164.044 43.4947 162.971 43.8625 161.863 43.8889H156.938C155.677 43.8794 154.441 43.53 153.361 42.8776ZM161.189 40.6865C161.708 40.6884 162.222 40.5848 162.699 40.382C163.177 40.1791 163.608 39.8813 163.967 39.5066C164.718 38.7589 165.142 37.7436 165.146 36.6834C165.148 36.1641 165.044 35.6498 164.842 35.1718C164.639 34.6937 164.342 34.2618 163.967 33.9023C163.607 33.5295 163.175 33.233 162.698 33.0303C162.221 32.8277 161.708 32.723 161.189 32.7225H156.938C155.889 32.7332 154.884 33.1526 154.138 33.892C153.391 34.6313 152.962 35.6325 152.94 36.6834C152.944 37.7436 153.368 38.7589 154.118 39.5066C154.482 39.8865 154.921 40.1874 155.406 40.3903C155.891 40.5933 156.413 40.6941 156.938 40.6865H161.189ZM159.716 29.6043C160.251 29.6317 160.785 29.5401 161.28 29.3361C161.774 29.132 162.218 28.8207 162.578 28.4244C162.948 28.0629 163.242 27.6319 163.444 27.1561C163.646 26.6803 163.752 26.1691 163.756 25.6521C163.76 25.1351 163.662 24.6224 163.467 24.1436C163.272 23.6647 162.984 23.2293 162.62 22.8622H162.536C162.181 22.4847 161.75 22.1878 161.271 21.9916C160.791 21.7953 160.276 21.7042 159.758 21.7245H158.285C157.768 21.7042 157.252 21.7953 156.773 21.9916C156.294 22.1878 155.862 22.4847 155.507 22.8622C155.135 23.2232 154.839 23.6554 154.636 24.1331C154.434 24.6109 154.329 25.1244 154.329 25.6433C154.333 26.7035 154.757 27.7188 155.507 28.4666C155.86 28.8495 156.29 29.1528 156.769 29.3563C157.248 29.5597 157.765 29.6586 158.285 29.6464L159.716 29.6043Z" fill="#4C6C7C"/>
<path d="M176.93 42.8776C175.544 42.1428 174.392 41.0332 173.605 39.6751C172.764 38.1711 172.343 36.4682 172.385 34.745V27.5816C172.338 25.8579 172.76 24.1539 173.605 22.6515C174.402 21.2711 175.588 20.157 177.015 19.4491C178.512 18.6866 180.176 18.3101 181.855 18.3535C183.48 18.3092 185.09 18.6866 186.527 19.4491C187.914 20.2008 189.065 21.3242 189.852 22.6936C190.691 24.1829 191.113 25.8719 191.072 27.5816V34.745C191.114 36.4816 190.692 38.1978 189.852 39.7173C189.053 41.0658 187.904 42.1725 186.527 42.9197C185.075 43.6432 183.476 44.0183 181.855 44.0153H181.602C179.976 44.0197 178.373 43.6293 176.93 42.8776ZM181.855 40.855C182.654 40.8928 183.453 40.7707 184.204 40.4957C184.956 40.2208 185.645 39.7986 186.232 39.2537C186.835 38.6767 187.302 37.973 187.6 37.1934C187.899 36.4137 188.021 35.5775 187.958 34.745V27.5816C188.015 26.7496 187.89 25.9152 187.592 25.1364C187.294 24.3577 186.83 23.6534 186.232 23.0729C185.033 21.9997 183.461 21.44 181.855 21.5138C180.168 21.4091 178.506 21.9686 177.225 23.0729C176.64 23.6632 176.185 24.369 175.888 25.1453C175.591 25.9215 175.458 26.7513 175.499 27.5816V34.745C175.458 35.5753 175.591 36.4051 175.888 37.1814C176.185 37.9577 176.64 38.6635 177.225 39.2537C177.812 39.7986 178.501 40.2208 179.253 40.4957C180.004 40.7707 180.803 40.8928 181.602 40.855H181.855Z" fill="#4C6C7C"/>
<path d="M200.163 42.8776C198.766 42.1436 197.6 41.0348 196.796 39.6751C195.955 38.1711 195.533 36.4682 195.576 34.745V27.5816C195.529 25.8579 195.951 24.1539 196.796 22.6515C197.593 21.2711 198.779 20.1569 200.205 19.449C201.719 18.6897 203.395 18.3136 205.088 18.3535C206.699 18.3145 208.294 18.6918 209.717 19.449C211.115 20.1876 212.269 21.3142 213.042 22.6936C213.882 24.1829 214.304 25.8719 214.263 27.5816V34.745C214.305 36.4815 213.883 38.1978 213.042 39.7172C212.255 41.0753 211.103 42.1849 209.717 42.9197C208.28 43.6383 206.695 44.0133 205.088 44.0153H204.835C203.208 44.0248 201.604 43.6341 200.163 42.8776ZM205.088 40.855C206.701 40.9219 208.275 40.3461 209.465 39.2537C210.05 38.6634 210.505 37.9577 210.802 37.1814C211.099 36.4051 211.232 35.5753 211.191 34.745V27.5816C211.229 26.7516 211.095 25.9225 210.799 25.1466C210.502 24.3707 210.048 23.6647 209.465 23.0729C208.261 22.0075 206.693 21.4489 205.088 21.5138C203.402 21.4224 201.746 21.9802 200.458 23.0729C199.855 23.6499 199.388 24.3536 199.09 25.1333C198.791 25.9129 198.669 26.7491 198.732 27.5816V34.745C198.672 35.5735 198.792 36.4053 199.082 37.1834C199.373 37.9615 199.828 38.6677 200.416 39.2537C201.01 39.7998 201.707 40.2225 202.465 40.4973C203.224 40.7722 204.029 40.8937 204.835 40.855H205.088Z" fill="#4C6C7C"/>
<defs>
<linearGradient id="paint0_linear" x1="33.7908" y1="99.3358" x2="72.2558" y2="23.6034" gradientUnits="userSpaceOnUse">
<stop stop-color="#EF8A31"/>
<stop offset="0.52" stop-color="#F29F2E"/>
<stop offset="0.98" stop-color="#F5BA27"/>
</linearGradient>
</defs>
</svg>
