<svg width="20" height="20" viewBox="0 0 20 20" fill="none" xmlns="http://www.w3.org/2000/svg">
<g opacity="0.75">
<path d="M18 15.5H2.99999C2.55999 15.5 2.16999 15.21 2.03999 14.79C1.90999 14.37 2.07999 13.91 2.43999 13.67C2.43999 13.67 4.48999 12.12 4.48999 7C4.48999 5.4 5.10999 3.89 6.24999 2.76C7.38999 1.62 8.89999 1 10.5 1C12.1 1 13.61 1.62 14.74 2.76C15.88 3.89 16.5 5.4 16.5 7C16.5 12.12 18.55 13.66 18.57 13.68C18.92 13.93 19.08 14.39 18.94 14.8C18.81 15.22 18.43 15.5 18 15.5ZM5.08999 13.5H15.91C15.19 12.22 14.5 10.17 14.5 7C14.5 5.93 14.08 4.93 13.33 4.17C11.82 2.66 9.17999 2.66 7.66999 4.17C6.92999 4.92 6.49999 5.95 6.49999 7C6.49999 10.17 5.80999 12.22 5.08999 13.5Z" fill="#33485C"/>
<path d="M10.5 19.66C10.03 19.66 9.57 19.54 9.17 19.3C8.77 19.07 8.43 18.73 8.2 18.33C7.92 17.85 8.09 17.24 8.56 16.96C9.04 16.68 9.65 16.85 9.93 17.32C9.99 17.42 10.07 17.5 10.17 17.56C10.37 17.68 10.63 17.68 10.84 17.56C10.94 17.5 11.03 17.42 11.08 17.32C11.36 16.84 11.97 16.68 12.45 16.96C12.93 17.24 13.09 17.85 12.81 18.33C12.58 18.73 12.24 19.07 11.83 19.3C11.43 19.54 10.97 19.66 10.5 19.66Z" fill="#33485C"/>
</g>
</svg>
