<svg width="20" height="20" viewBox="0 0 20 20" fill="none" xmlns="http://www.w3.org/2000/svg">
<g opacity="0.75" clip-path="url(#clip0)">
<path fill-rule="evenodd" clip-rule="evenodd" d="M10 -0.166656C10.5523 -0.166656 11 0.281059 11 0.833344V19.1667C11 19.719 10.5523 20.1667 10 20.1667C9.44772 20.1667 9 19.719 9 19.1667V0.833344C9 0.281059 9.44772 -0.166656 10 -0.166656Z" fill="#33485C"/>
<path fill-rule="evenodd" clip-rule="evenodd" d="M5.14717 4.31382C5.88168 3.5793 6.8779 3.16666 7.91667 3.16666H14.1667C14.719 3.16666 15.1667 3.61437 15.1667 4.16666C15.1667 4.71894 14.719 5.16666 14.1667 5.16666H7.91667C7.40834 5.16666 6.92082 5.36859 6.56138 5.72804C6.20193 6.08748 6 6.57499 6 7.08332C6 7.59165 6.20193 8.07917 6.56138 8.43861C6.92082 8.79806 7.40834 8.99999 7.91667 8.99999H12.0833C13.1221 8.99999 14.1183 9.41264 14.8528 10.1472C15.5874 10.8817 16 11.8779 16 12.9167C16 13.9554 15.5874 14.9516 14.8528 15.6862C14.1183 16.4207 13.1221 16.8333 12.0833 16.8333H5C4.44772 16.8333 4 16.3856 4 15.8333C4 15.281 4.44772 14.8333 5 14.8333H12.0833C12.5917 14.8333 13.0792 14.6314 13.4386 14.2719C13.7981 13.9125 14 13.425 14 12.9167C14 12.4083 13.7981 11.9208 13.4386 11.5614C13.0792 11.2019 12.5917 11 12.0833 11H7.91667C6.8779 11 5.88168 10.5873 5.14717 9.85283C4.41265 9.11831 4 8.12209 4 7.08332C4 6.04456 4.41265 5.04834 5.14717 4.31382Z" fill="#33485C"/>
</g>
<defs>
<clipPath id="clip0">
<rect width="20" height="20" fill="white"/>
</clipPath>
</defs>
</svg>
