<svg width="146" height="32" viewBox="0 0 146 32" fill="none" xmlns="http://www.w3.org/2000/svg">
<path fill-rule="evenodd" clip-rule="evenodd" d="M5.40961 28.0439C5.01282 27.8169 4.6649 27.5136 4.38594 27.1514C4.10697 26.7892 3.90247 26.3754 3.78424 25.9338C3.666 25.4922 3.63638 25.0316 3.69706 24.5785C3.75775 24.1254 3.90755 23.6888 4.13782 23.2939L14.5726 5.213C15.0318 4.41242 15.7903 3.82705 16.6811 3.58567C17.5719 3.34429 18.5221 3.46667 19.3227 3.92589C20.1233 4.3851 20.7086 5.14354 20.95 6.03435C21.1914 6.92516 21.069 7.87537 20.6098 8.67595H20.5945L10.1597 26.7568C9.93392 27.1549 9.63152 27.5043 9.26994 27.7848C8.90835 28.0653 8.49476 28.2713 8.05306 28.391C7.61136 28.5107 7.15033 28.5416 6.69659 28.4821C6.24286 28.4225 5.80544 28.2736 5.40961 28.0439V28.0439ZM1.11923 21.5471C0.487126 22.644 0.165616 23.8922 0.189198 25.158C0.212781 26.4238 0.580566 27.6592 1.25309 28.7318C1.92561 29.8044 2.87749 30.6736 4.00658 31.2462C5.13568 31.8187 6.39936 32.0731 7.66205 31.9819H28.0413C29.8877 31.9778 31.6571 31.2415 32.9613 29.9345C34.2655 28.6274 34.9979 26.8564 34.9979 25.01C35.0019 23.7949 34.6848 22.6002 34.0785 21.5471H34.0938L23.751 3.72669C23.1714 2.62461 22.3072 1.69786 21.2482 1.04278C20.1893 0.387696 18.9742 0.0281772 17.7293 0.00158982C16.4844 -0.0249976 15.255 0.282316 14.1691 0.891592C13.0831 1.50087 12.1802 2.38987 11.554 3.4662L1.11923 21.5471ZM23.6284 10.3921V10.4227L19.2307 18.0535H28.072L23.6284 10.3921ZM17.2081 21.5318L13.1783 28.4883H28.0413C28.9638 28.4883 29.8485 28.1218 30.5009 27.4695C31.1532 26.8172 31.5196 25.9325 31.5196 25.01C31.5196 24.0875 31.1532 23.2028 30.5009 22.5505C29.8485 21.8982 28.9638 21.5318 28.0413 21.5318H17.2081Z" fill="url(#paint0_linear_1372_60229)"></path>
<path d="M50.5655 27.8584H48.9106C48.8286 27.8675 48.7457 27.86 48.6667 27.8363C48.5877 27.8126 48.5143 27.7732 48.4509 27.7205C48.3345 27.6344 48.2444 27.5177 48.1904 27.3834L47.317 25.0236H42.5517L41.6783 27.3834C41.6342 27.5147 41.5481 27.6278 41.4331 27.7051C41.3727 27.7587 41.3024 27.7997 41.2262 27.826C41.1499 27.8523 41.0692 27.8633 40.9887 27.8584H39.3032L43.8388 16.3203H46.0299L50.5655 27.8584ZM46.7807 23.5067L45.371 19.6607C45.2944 19.4921 45.2331 19.2929 45.1565 19.0631C45.0799 18.8332 45.0033 18.5728 44.9267 18.297C44.8683 18.5558 44.7967 18.8115 44.7122 19.0631C44.6528 19.2714 44.5811 19.4761 44.4976 19.676L43.1033 23.5067H46.7807Z" fill="#4C6C7C"></path>
<path d="M58.9931 25.1472C59.051 25.1474 59.1082 25.1599 59.161 25.1836C59.2138 25.2074 59.261 25.2419 59.2996 25.2851L60.1423 26.1891C59.6867 26.766 59.0978 27.2235 58.4262 27.5222C56.8953 28.1443 55.1841 28.1553 53.6455 27.5529C52.981 27.2761 52.3849 26.8578 51.8987 26.327C51.4052 25.793 51.0294 25.1614 50.7954 24.473C50.2596 22.9288 50.265 21.2483 50.8107 19.7076C51.0726 19.0152 51.4742 18.384 51.9906 17.8535C52.4939 17.3217 53.1052 16.9038 53.7834 16.6277C54.5184 16.3324 55.305 16.1865 56.0971 16.1987C56.8633 16.1814 57.6249 16.3223 58.3342 16.6124C58.9504 16.8744 59.5157 17.2426 60.0044 17.7003L59.2842 18.6963L59.1157 18.8648C59.0358 18.9224 58.938 18.9496 58.8399 18.9415C58.7529 18.9374 58.6685 18.9111 58.5947 18.8648C58.4963 18.8201 58.4037 18.7635 58.3189 18.6963L57.9665 18.4818C57.8194 18.3978 57.6656 18.3261 57.5068 18.2673C57.3096 18.1879 57.1039 18.1313 56.8939 18.0987C56.6321 18.0429 56.3647 18.0172 56.0971 18.0221C55.6086 18.0201 55.1245 18.1138 54.6721 18.2979C54.2513 18.481 53.8749 18.7528 53.5688 19.0947C53.2443 19.4707 52.9993 19.9085 52.8487 20.3818C52.6703 20.9362 52.5823 21.5156 52.5882 22.0979C52.5888 22.686 52.6818 23.2703 52.864 23.8294C53.0257 24.2998 53.2811 24.7324 53.6148 25.1012C53.9196 25.4446 54.2962 25.7166 54.718 25.898C55.1549 26.0805 55.6237 26.1742 56.0971 26.1738L56.8939 26.1278C57.113 26.0987 57.3287 26.0474 57.5374 25.9746C57.737 25.9129 57.9276 25.8253 58.1044 25.7141C58.2959 25.5935 58.4754 25.455 58.6407 25.3004C58.6908 25.2559 58.7477 25.2197 58.8092 25.1931C58.8661 25.1638 58.9291 25.1481 58.9931 25.1472V25.1472Z" fill="#4C6C7C"></path>
<path d="M68.9525 25.1472C69.0104 25.1474 69.0676 25.1599 69.1204 25.1836C69.1732 25.2074 69.2204 25.2419 69.259 25.2851L70.1018 26.1891C69.6462 26.766 69.0572 27.2235 68.3856 27.5222C66.8548 28.1443 65.1436 28.1553 63.6049 27.5529C62.9404 27.2761 62.3443 26.8578 61.8581 26.327C61.3651 25.79 60.9848 25.1595 60.7395 24.473C60.4834 23.7074 60.3541 22.9052 60.3565 22.0979C60.3555 21.2833 60.4955 20.4746 60.7702 19.7076C61.0321 19.0187 61.4279 18.3886 61.9347 17.8535C62.4464 17.3245 63.062 16.9072 63.7428 16.6277C64.4779 16.3324 65.2645 16.1865 66.0565 16.1987C66.8228 16.1814 67.5843 16.3223 68.2937 16.6124C68.9098 16.8744 69.4751 17.2426 69.9639 17.7003L69.2437 18.6963L69.0751 18.8648C68.9942 18.9201 68.8972 18.947 68.7993 18.9415C68.712 18.9397 68.6269 18.9132 68.5542 18.8648C68.4557 18.8201 68.3631 18.7635 68.2783 18.6963L67.9259 18.4818C67.7788 18.3978 67.6251 18.3261 67.4662 18.2673C67.2684 18.1899 67.063 18.1334 66.8533 18.0987C66.5915 18.0429 66.3242 18.0172 66.0565 18.0221C65.5681 18.0201 65.084 18.1138 64.6315 18.2979C64.2107 18.481 63.8344 18.7528 63.5283 19.0947C63.2068 19.4728 62.9622 19.91 62.8081 20.3818C62.6297 20.9362 62.5418 21.5156 62.5476 22.0979C62.5482 22.686 62.6413 23.2703 62.8234 23.8294C62.9851 24.2998 63.2406 24.7324 63.5743 25.1012C63.879 25.4446 64.2557 25.7166 64.6775 25.898C65.1143 26.0805 65.5831 26.1742 66.0565 26.1738L66.8533 26.1278C67.0725 26.0987 67.2881 26.0474 67.4969 25.9746C67.6964 25.9129 67.887 25.8253 68.0638 25.7141C68.2553 25.5935 68.4349 25.455 68.6001 25.3004C68.6502 25.2559 68.7071 25.2197 68.7687 25.1931C68.8256 25.1638 68.8885 25.1481 68.9525 25.1472V25.1472Z" fill="#4C6C7C"></path>
<path d="M81.9924 22.0977C81.9955 22.8989 81.85 23.6938 81.5634 24.4421C81.3027 25.1411 80.8998 25.7785 80.3803 26.3139C79.8607 26.8493 79.2357 27.2711 78.5448 27.5526C77.0044 28.1351 75.3044 28.1351 73.7641 27.5526C73.0665 27.2722 72.4351 26.8495 71.91 26.3114C71.3904 25.7746 70.984 25.1389 70.7148 24.4421C70.1634 22.9225 70.1634 21.2575 70.7148 19.738C70.9876 19.0429 71.3936 18.4079 71.91 17.8686C72.4398 17.3401 73.0703 16.9232 73.7641 16.6428C74.5223 16.3337 75.3357 16.1825 76.1544 16.1984C76.7121 16.1966 77.2679 16.2635 77.8093 16.3976C78.3022 16.5304 78.776 16.7261 79.219 16.9799C79.6484 17.224 80.0406 17.5284 80.3835 17.8839C80.7263 18.2362 81.0201 18.633 81.2569 19.0638C81.5036 19.512 81.6891 19.9913 81.8085 20.4888C81.9318 21.0162 81.9935 21.5561 81.9924 22.0977ZM79.7859 22.0977C79.797 21.5162 79.7142 20.9367 79.5408 20.3815C79.3872 19.9108 79.1367 19.4776 78.8053 19.1097C78.4926 18.7579 78.1052 18.4804 77.6714 18.2976C76.6882 17.9299 75.6053 17.9299 74.6221 18.2976C74.1857 18.4837 73.794 18.7605 73.4729 19.1097C73.1515 19.4822 72.9068 19.9143 72.7528 20.3815C72.4004 21.4933 72.4004 22.6868 72.7528 23.7985C72.8974 24.2698 73.1432 24.7038 73.4729 25.0703C73.794 25.4195 74.1857 25.6964 74.6221 25.8824C75.6053 26.2502 76.6882 26.2502 77.6714 25.8824C78.1052 25.6996 78.4926 25.4222 78.8053 25.0703C79.1397 24.7047 79.3907 24.2707 79.5408 23.7985C79.7131 23.2484 79.7959 22.6741 79.7859 22.0977Z" fill="#4C6C7C"></path>
<path d="M88.1676 26.1269C88.5502 26.138 88.9309 26.0701 89.2862 25.9277C89.5949 25.793 89.8716 25.5946 90.0983 25.3454C90.3299 25.0756 90.5068 24.7634 90.6193 24.4261C90.7424 24.0397 90.8045 23.6364 90.8031 23.2309V16.3203H92.9483V23.2309C92.9523 23.8844 92.8381 24.5333 92.6112 25.1462C92.4062 25.7126 92.0809 26.2277 91.6576 26.6563C91.2344 27.0848 90.7233 27.4165 90.1596 27.6285C88.8741 28.1036 87.4611 28.1036 86.1757 27.6285C85.6096 27.4131 85.0964 27.0787 84.6708 26.6478C84.2452 26.2169 83.9171 25.6996 83.7087 25.1309C83.4856 24.5227 83.3765 23.8786 83.3869 23.2309V16.3203H85.5321V23.2309C85.5332 23.6362 85.5951 24.0391 85.716 24.4261C85.819 24.7629 85.9972 25.072 86.2369 25.3301C86.4615 25.5921 86.7451 25.7969 87.0644 25.9277C87.4142 26.0702 87.79 26.1381 88.1676 26.1269V26.1269Z" fill="#4C6C7C"></path>
<path d="M104.747 16.3203V27.8584H103.643C103.496 27.8702 103.348 27.8438 103.214 27.7817C103.09 27.7057 102.981 27.607 102.892 27.4906L96.8707 19.7986C96.9013 20.151 96.9166 20.4728 96.9166 20.7792V27.8584H95.0166V16.3203H96.3803L96.5642 16.3663L96.7021 16.4735L96.8707 16.6574L102.908 24.3801C102.893 24.1962 102.893 24.0123 102.877 23.8285C102.862 23.6446 102.862 23.476 102.862 23.3228V16.3203H104.747Z" fill="#4C6C7C"></path>
<path d="M115.028 18.0824H111.55V27.8584H109.405V18.0824H105.927V16.3203H115.028V18.0824Z" fill="#4C6C7C"></path>
<path d="M124.958 27.8584H123.287C123.208 27.8663 123.128 27.8581 123.051 27.8344C122.975 27.8107 122.904 27.772 122.843 27.7205C122.727 27.6306 122.632 27.5153 122.567 27.3834L121.709 25.0236H116.928L116.07 27.3834C116.021 27.5118 115.936 27.6235 115.825 27.7051C115.763 27.7598 115.69 27.8015 115.611 27.8278C115.532 27.8542 115.448 27.8645 115.365 27.8584H113.695L118.231 16.3203H120.422L124.958 27.8584ZM121.158 23.5067L119.763 19.6607C119.675 19.4678 119.603 19.2679 119.549 19.0631C119.472 18.8332 119.395 18.5728 119.319 18.297C119.242 18.5728 119.181 18.8332 119.104 19.0631C119.028 19.2929 118.951 19.5074 118.89 19.676L117.495 23.5067H121.158Z" fill="#4C6C7C"></path>
<path d="M135.53 16.3203V27.8584H134.427C134.28 27.8716 134.132 27.8452 133.998 27.7817C133.866 27.7105 133.751 27.6112 133.661 27.4906L127.639 19.7986C127.67 20.151 127.685 20.4728 127.685 20.7792V27.8584H125.8V16.3203H127.164L127.333 16.3663L127.486 16.4735L127.639 16.6574L133.692 24.3801L133.646 23.8285C133.63 23.6446 133.63 23.476 133.63 23.3228V16.3203H135.53Z" fill="#4C6C7C"></path>
<path d="M145.797 18.0824H142.318V27.8584H140.173V18.0824H136.695V16.3203H145.812L145.797 18.0824Z" fill="#4C6C7C"></path>
<path d="M44.3291 6.16163L43.0267 7.0197L42.3984 6.10033L44.7122 4.55273H45.4783V13.7617H44.3291V6.16163Z" fill="#4C6C7C"></path>
<path d="M52.1746 9.60938V10.6207H48.0527V9.60938H52.1746Z" fill="#4C6C7C"></path>
<path d="M56.0202 13.4096C55.6291 13.184 55.3021 12.8623 55.0702 12.4749C54.8393 12.0804 54.7226 11.6295 54.7331 11.1725V11.1725C54.7312 10.7081 54.8701 10.254 55.1315 9.87004C55.3826 9.4767 55.7454 9.16725 56.1734 8.98132C55.885 8.77052 55.6533 8.49149 55.4992 8.16921C55.3314 7.85204 55.2371 7.50116 55.2234 7.14259C55.2264 6.69013 55.3479 6.24635 55.5758 5.85547C55.816 5.47464 56.1412 5.1547 56.5258 4.92078C56.9167 4.69288 57.3605 4.57137 57.8129 4.56836H58.3492C58.8018 4.57007 59.2461 4.68967 59.6384 4.91537C60.0307 5.14107 60.3574 5.46508 60.5864 5.85547C60.8163 6.2455 60.938 6.68983 60.9388 7.14259C60.9379 7.51079 60.8486 7.87339 60.6783 8.19986C60.5219 8.51692 60.2839 8.78664 59.9888 8.98132C60.4163 9.16805 60.7789 9.47731 61.0307 9.87004C61.3011 10.2504 61.4458 10.7058 61.4444 11.1725C61.4416 11.6084 61.3255 12.0362 61.1073 12.4136C60.9015 12.8075 60.6014 13.1444 60.2339 13.3943C59.9094 13.634 59.5188 13.7678 59.1154 13.7773H57.3226C56.8633 13.7739 56.4135 13.6468 56.0202 13.4096V13.4096ZM58.8702 12.6128C59.0591 12.6135 59.2461 12.5758 59.4199 12.5021C59.5937 12.4283 59.7508 12.32 59.8815 12.1838C60.1548 11.9119 60.3091 11.5427 60.3106 11.1572C60.3112 10.9683 60.2736 10.7813 60.1998 10.6075C60.1261 10.4336 60.0178 10.2766 59.8815 10.1458C59.7502 10.0103 59.5931 9.90246 59.4194 9.82877C59.2457 9.75507 59.0589 9.717 58.8702 9.71681H57.3226C56.9404 9.72071 56.5747 9.87324 56.303 10.1421C56.0313 10.4109 55.8749 10.775 55.867 11.1572C55.8684 11.5427 56.0227 11.9119 56.296 12.1838C56.4285 12.3219 56.588 12.4313 56.7647 12.5051C56.9413 12.5789 57.1312 12.6156 57.3226 12.6128H58.8702ZM58.3339 8.58293C58.5285 8.59289 58.7229 8.55958 58.9031 8.4854C59.0832 8.41121 59.2447 8.29799 59.3759 8.15389C59.5103 8.02244 59.6174 7.8657 59.691 7.69268C59.7646 7.51966 59.8032 7.33379 59.8046 7.14578C59.806 6.95776 59.7702 6.77133 59.6993 6.59722C59.6283 6.4231 59.5236 6.26475 59.3912 6.13128H59.3605C59.2314 5.99401 59.0743 5.88604 58.8998 5.81467C58.7253 5.7433 58.5376 5.71019 58.3492 5.71757H57.8129C57.6246 5.71019 57.4369 5.7433 57.2624 5.81467C57.0879 5.88604 56.9308 5.99401 56.8016 6.13128C56.6661 6.26255 56.5583 6.41971 56.4846 6.59342C56.4109 6.76714 56.3728 6.95388 56.3726 7.14259C56.374 7.52811 56.5283 7.89732 56.8016 8.16921C56.9301 8.30847 57.0867 8.41877 57.261 8.49275C57.4354 8.56673 57.6236 8.60269 57.8129 8.59825L58.3339 8.58293Z" fill="#4C6C7C"></path>
<path d="M64.6009 13.4094C64.0964 13.1422 63.677 12.7387 63.3904 12.2448C63.0842 11.6979 62.9307 11.0787 62.9461 10.4521V7.84719C62.9292 7.2204 63.0828 6.60077 63.3904 6.05443C63.6804 5.55245 64.1122 5.14732 64.6316 4.8899C65.1767 4.61265 65.7823 4.47572 66.3937 4.49151C66.9855 4.47539 67.5714 4.61264 68.0945 4.8899C68.5997 5.16325 69.0188 5.57177 69.305 6.06975C69.6108 6.61131 69.7643 7.22548 69.7494 7.84719V10.4521C69.7645 11.0835 69.6112 11.7076 69.305 12.2602C69.0141 12.7505 68.5958 13.153 68.0945 13.4247C67.5662 13.6878 66.9839 13.8242 66.3937 13.8231H66.3018C65.7097 13.8247 65.1261 13.6827 64.6009 13.4094V13.4094ZM66.3937 12.6739C66.6847 12.6876 66.9755 12.6432 67.2491 12.5432C67.5228 12.4433 67.7737 12.2897 67.9873 12.0916C68.2067 11.8818 68.3769 11.6259 68.4855 11.3424C68.5941 11.0589 68.6385 10.7548 68.6155 10.4521V7.84719C68.6364 7.54466 68.591 7.24121 68.4825 6.95803C68.374 6.67485 68.205 6.41877 67.9873 6.20766C67.5508 5.81741 66.9786 5.61387 66.3937 5.64071C65.7794 5.60266 65.1746 5.8061 64.7082 6.20766C64.4953 6.42231 64.3295 6.67896 64.2214 6.96124C64.1132 7.24353 64.065 7.54526 64.08 7.84719V10.4521C64.065 10.754 64.1132 11.0557 64.2214 11.338C64.3295 11.6203 64.4953 11.877 64.7082 12.0916C64.9218 12.2897 65.1727 12.4433 65.4463 12.5432C65.72 12.6432 66.0108 12.6876 66.3018 12.6739H66.3937Z" fill="#4C6C7C"></path>
<path d="M73.0591 13.4091C72.5504 13.1422 72.1259 12.739 71.8333 12.2446C71.527 11.6977 71.3736 11.0785 71.389 10.4518V7.84697C71.372 7.22017 71.5256 6.60054 71.8333 6.0542C72.1233 5.55222 72.555 5.14709 73.0745 4.88967C73.6255 4.61356 74.2358 4.47677 74.8519 4.49128C75.4386 4.47712 76.0191 4.61433 76.5374 4.88967C77.0461 5.15824 77.4664 5.56792 77.7479 6.06953C78.0536 6.61108 78.2072 7.22525 78.1923 7.84697V10.4518C78.2074 11.0833 78.054 11.7074 77.7479 12.2599C77.4614 12.7538 77.042 13.1573 76.5374 13.4245C76.0139 13.6857 75.437 13.8221 74.8519 13.8228H74.76C74.1677 13.8263 73.5836 13.6842 73.0591 13.4091V13.4091ZM74.8519 12.6736C75.4392 12.698 76.0122 12.4886 76.4455 12.0914C76.6583 11.8767 76.8241 11.6201 76.9323 11.3378C77.0405 11.0555 77.0886 10.7538 77.0737 10.4518V7.84697C77.0877 7.54514 77.0391 7.24367 76.931 6.96152C76.8229 6.67937 76.6576 6.42263 76.4455 6.20743C76.0073 5.82001 75.4363 5.61689 74.8519 5.64049C74.2383 5.60725 73.6352 5.81011 73.1664 6.20743C72.947 6.41727 72.7768 6.67315 72.6682 6.95666C72.5596 7.24017 72.5152 7.54423 72.5382 7.84697V10.4518C72.5163 10.7531 72.5598 11.0556 72.6656 11.3385C72.7714 11.6215 72.937 11.8783 73.1511 12.0914C73.3675 12.2899 73.6211 12.4437 73.8972 12.5436C74.1734 12.6435 74.4666 12.6877 74.76 12.6736H74.8519Z" fill="#4C6C7C"></path>
<defs>
<linearGradient id="paint0_linear_1372_60229" x1="12.4899" y1="33.9403" x2="26.4675" y2="6.3881" gradientUnits="userSpaceOnUse">
<stop stop-color="#EF8A31"></stop>
<stop offset="0.52" stop-color="#F29F2E"></stop>
<stop offset="0.98" stop-color="#F5BA27"></stop>
</linearGradient>
</defs>
</svg>