<svg width="20" height="20" viewBox="0 0 20 20" fill="none" xmlns="http://www.w3.org/2000/svg">
<g opacity="0.75" clip-path="url(#clip0)">
<path fill-rule="evenodd" clip-rule="evenodd" d="M6.17053 0.798414C6.46083 0.632528 6.81483 0.622702 7.11388 0.77223L13.3019 3.86622L18.6705 0.798414C18.98 0.621555 19.3603 0.622825 19.6686 0.801747C19.9769 0.980669 20.1667 1.31019 20.1667 1.66666V15C20.1667 15.3588 19.9744 15.6902 19.6628 15.8682L13.8295 19.2016C13.5392 19.3675 13.1852 19.3773 12.8861 19.2278L6.69814 16.1338L1.32947 19.2016C1.01997 19.3784 0.639724 19.3772 0.331409 19.1982C0.0230943 19.0193 -0.166664 18.6898 -0.166664 18.3333V4.99999C-0.166664 4.64113 0.0256219 4.30979 0.337197 4.13175L6.17053 0.798414ZM6.69814 2.80043L1.83334 5.58031V16.6101L6.17053 14.1317C6.46083 13.9659 6.81483 13.956 7.11388 14.1056L13.3019 17.1996L18.1667 14.4197V3.38984L13.8295 5.86823C13.5392 6.03412 13.1852 6.04394 12.8861 5.89442L6.69814 2.80043Z" fill="#33485C"/>
<path fill-rule="evenodd" clip-rule="evenodd" d="M6.66666 0.666656C7.21895 0.666656 7.66666 1.11437 7.66666 1.66666V15C7.66666 15.5523 7.21895 16 6.66666 16C6.11438 16 5.66666 15.5523 5.66666 15V1.66666C5.66666 1.11437 6.11438 0.666656 6.66666 0.666656Z" fill="#33485C"/>
<path fill-rule="evenodd" clip-rule="evenodd" d="M13.3333 4C13.8856 4 14.3333 4.44772 14.3333 5V18.3333C14.3333 18.8856 13.8856 19.3333 13.3333 19.3333C12.7811 19.3333 12.3333 18.8856 12.3333 18.3333V5C12.3333 4.44772 12.7811 4 13.3333 4Z" fill="#33485C"/>
</g>
<defs>
<clipPath id="clip0">
<rect width="20" height="20" fill="white"/>
</clipPath>
</defs>
</svg>
