<svg width="24" height="24" viewBox="0 0 24 24" fill="none" xmlns="http://www.w3.org/2000/svg">
<path d="M17.5 20V18.3333C17.5 17.4493 17.5626 16.6014 17 15.9763C16.4374 15.3512 15.7956 15 15 15H9C8.20435 15 7.56261 15.3512 7 15.9763C6.43739 16.6014 6.5 17.4493 6.5 18.3333V20M15 9C15 10.6569 13.6569 12 12 12C10.3431 12 9 10.6569 9 9C9 7.34315 10.3431 6 12 6C13.6569 6 15 7.34315 15 9ZM22 12C22 17.5228 17.5228 22 12 22C6.47715 22 2 17.5228 2 12C2 6.47715 6.47715 2 12 2C17.5228 2 22 6.47715 22 12Z" stroke="#121724" stroke-opacity="0.65" stroke-width="2" stroke-linecap="round" stroke-linejoin="round"></path>
</svg>