<svg width="24" height="24" viewBox="0 0 24 24" fill="none" xmlns="http://www.w3.org/2000/svg">
<g clip-path="url(#clip0)">
<path d="M16 15.762L12 11.762M12 11.762L8 15.762M12 11.762V20.762M20.3953 18.1519C21.3707 17.6202 22.1412 16.7788 22.5852 15.7606C23.0292 14.7423 23.1215 13.6052 22.8475 12.5286C22.5735 11.4521 21.9488 10.4975 21.072 9.81539C20.1952 9.13333 19.1162 8.76268 18.0053 8.76195H16.7453C16.4426 7.59119 15.8785 6.50428 15.0953 5.58294C14.3121 4.6616 13.3302 3.9298 12.2234 3.44255C11.1167 2.95531 9.91388 2.72531 8.70545 2.76983C7.49701 2.81435 6.3144 3.13225 5.24651 3.69961C4.17862 4.26698 3.25324 5.06905 2.53995 6.04553C1.82666 7.02201 1.34402 8.14748 1.12831 9.33734C0.912601 10.5272 0.969437 11.7505 1.29454 12.9152C1.61965 14.0799 2.20457 15.1558 3.00533 16.0619" stroke="#121724" stroke-opacity="0.65" stroke-width="2" stroke-linecap="round" stroke-linejoin="round"></path>
</g>
<defs>
<clipPath id="clip0">
<rect width="24" height="24" fill="white"></rect>
</clipPath>
</defs>
</svg>