<svg width="20" height="20" viewBox="0 0 20 20" fill="none" xmlns="http://www.w3.org/2000/svg">
<g opacity="0.75">
<path d="M15.7667 5.00832C15.6 4.51666 15.1333 4.16666 14.5833 4.16666H5.41667C4.86667 4.16666 4.40833 4.51666 4.23333 5.00832L2.5 9.99999V16.6667C2.5 17.125 2.875 17.5 3.33333 17.5H4.16667C4.625 17.5 5 17.125 5 16.6667V15.8333H15V16.6667C15 17.125 15.375 17.5 15.8333 17.5H16.6667C17.125 17.5 17.5 17.125 17.5 16.6667V9.99999L15.7667 5.00832ZM5.70833 5.83332H14.2833L15.1833 8.42499H4.80833L5.70833 5.83332ZM15.8333 14.1667H4.16667V9.99999H15.8333V14.1667Z" fill="#33485C"></path>
<path d="M6.25 13.3333C6.94036 13.3333 7.5 12.7737 7.5 12.0833C7.5 11.393 6.94036 10.8333 6.25 10.8333C5.55964 10.8333 5 11.393 5 12.0833C5 12.7737 5.55964 13.3333 6.25 13.3333Z" fill="#33485C"></path>
<path d="M13.75 13.3333C14.4404 13.3333 15 12.7737 15 12.0833C15 11.393 14.4404 10.8333 13.75 10.8333C13.0596 10.8333 12.5 11.393 12.5 12.0833C12.5 12.7737 13.0596 13.3333 13.75 13.3333Z" fill="#33485C"></path>
</g>
</svg>